<!DOCTYPE svg PUBLIC "-//W3C//DTD SVG 20010904//EN" "http://www.w3.org/TR/2001/REC-SVG-20010904/DTD/svg10.dtd">
<svg version="1.0" xmlns="http://www.w3.org/2000/svg" width="180px" height="180px" viewBox="0 0 1800 1800" preserveAspectRatio="xMidYMid meet">
<g id="layer101" fill="#000000" stroke="none">
 <path d="M518 1753 c-16 -4 -18 -18 -19 -106 l-1 -102 -14 79 c-20 118 -32 119 -44 1 -8 -81 -13 -91 -45 -97 -30 -5 -37 -99 -32 -395 l5 -253 -68 0 c-52 0 -71 -4 -83 -18 -26 -28 -21 -39 21 -49 25 -6 41 -17 49 -35 10 -19 23 -27 52 -32 53 -8 49 14 66 -353 6 -124 5 -173 -3 -173 -6 0 -14 4 -17 10 -3 5 -16 10 -28 10 -20 1 -19 3 11 31 43 39 35 48 -18 20 -56 -29 -70 -27 -70 8 0 28 2 30 55 36 75 10 66 29 -14 33 -55 3 -67 0 -97 -23 -28 -21 -34 -33 -34 -63 0 -32 7 -43 45 -77 33 -28 42 -41 33 -47 -10 -6 -8 -13 9 -27 16 -13 47 -20 114 -25 104 -8 154 -25 164 -55 13 -42 79 -34 90 12 6 22 9 22 168 22 203 0 256 13 521 123 151 63 161 68 197 116 22 28 52 67 69 86 32 38 39 85 18 111 -22 26 -91 75 -143 102 -66 33 -230 97 -250 97 -8 0 -58 22 -111 50 -53 27 -98 50 -100 50 -2 0 -4 -8 -4 -18 0 -13 25 -30 87 -60 48 -23 79 -42 68 -42 -24 1 -144 25 -345 70 -80 18 -160 35 -178 38 -40 5 -52 30 -52 102 0 35 -4 50 -16 54 -9 4 -14 9 -10 13 3 3 -1 17 -9 29 -12 19 -15 83 -15 388 -1 201 -2 365 -3 365 -1 -1 -10 -3 -19 -6z m282 -1090 c253 -52 580 -169 580 -208 0 -10 6 -12 18 -8 16 7 16 6 0 -11 -10 -9 -18 -24 -18 -31 0 -25 -20 -27 -50 -5 -25 18 -34 19 -45 10 -21 -18 -19 -28 14 -61 l30 -29 -46 -31 c-24 -17 -72 -38 -106 -45 -80 -19 -286 -44 -414 -51 l-103 -6 0 26 c0 14 5 37 11 51 10 21 8 34 -16 81 -16 30 -29 65 -30 78 -3 29 -34 214 -42 246 l-6 24 74 -7 c41 -4 108 -14 149 -23z"/>
 <path d="M700 882 c0 -21 18 -32 51 -32 36 0 17 31 -28 44 -19 6 -23 3 -23 -12z"/>
 </g>

</svg>